{
    "asset" : {
        "generator" : "Khronos glTF Blender I/O v1.8.19",
        "version" : "2.0"
    },
    "scene" : 0,
    "scenes" : [
        {
            "name" : "Scene",
            "nodes" : [
                0
            ]
        }
    ],
    "nodes" : [
        {
            "mesh" : 0,
            "name" : "Master Chief"
        }
    ],
    "materials" : [
        {
            "doubleSided" : true,
            "name" : "Default OBJ",
            "pbrMetallicRoughness" : {
                "baseColorFactor" : [
                    0.800000011920929,
                    0.800000011920929,
                    0.800000011920929,
                    1
                ],
                "metallicFactor" : 0,
                "roughnessFactor" : 0.5
            }
        },
        {
            "doubleSided" : true,
            "name" : "light_shield",
            "pbrMetallicRoughness" : {
                "baseColorFactor" : [
                    0.6000000238418579,
                    0.6000000238418579,
                    0.6000000238418579,
                    1
                ],
                "metallicFactor" : 0
            }
        },
        {
            "doubleSided" : true,
            "name" : "light_shield_generator",
            "pbrMetallicRoughness" : {
                "baseColorFactor" : [
                    0.6000000238418579,
                    0.6000000238418579,
                    0.6000000238418579,
                    1
                ],
                "metallicFactor" : 0
            }
        },
        {
            "doubleSided" : true,
            "name" : "armor",
            "pbrMetallicRoughness" : {
                "baseColorFactor" : [
                    0.5,
                    0.699999988079071,
                    0.5,
                    1
                ],
                "metallicFactor" : 0
            }
        },
        {
            "doubleSided" : true,
            "name" : "visor",
            "pbrMetallicRoughness" : {
                "baseColorFactor" : [
                    0.6000000238418579,
                    0.6000000238418579,
                    0.6000000238418579,
                    1
                ],
                "metallicFactor" : 0
            }
        }
    ],
    "meshes" : [
        {
            "name" : "Master Chief",
            "primitives" : [
                {
                    "attributes" : {
                        "POSITION" : 0,
                        "NORMAL" : 1,
                        "TEXCOORD_0" : 2
                    },
                    "indices" : 3,
                    "material" : 0
                },
                {
                    "attributes" : {
                        "POSITION" : 4,
                        "NORMAL" : 5,
                        "TEXCOORD_0" : 6
                    },
                    "indices" : 7,
                    "material" : 1
                },
                {
                    "attributes" : {
                        "POSITION" : 8,
                        "NORMAL" : 9,
                        "TEXCOORD_0" : 10
                    },
                    "indices" : 11,
                    "material" : 2
                },
                {
                    "attributes" : {
                        "POSITION" : 12,
                        "NORMAL" : 13,
                        "TEXCOORD_0" : 14
                    },
                    "indices" : 15,
                    "material" : 3
                },
                {
                    "attributes" : {
                        "POSITION" : 16,
                        "NORMAL" : 17,
                        "TEXCOORD_0" : 18
                    },
                    "indices" : 19,
                    "material" : 4
                }
            ]
        }
    ],
    "accessors" : [
        {
            "bufferView" : 0,
            "componentType" : 5126,
            "count" : 1552,
            "max" : [
                3.8432600498199463,
                66.36117553710938,
                14.357351303100586
            ],
            "min" : [
                -7.395208835601807,
                -1.1317460536956787,
                -14.36811637878418
            ],
            "type" : "VEC3"
        },
        {
            "bufferView" : 1,
            "componentType" : 5126,
            "count" : 1552,
            "type" : "VEC3"
        },
        {
            "bufferView" : 2,
            "componentType" : 5126,
            "count" : 1552,
            "type" : "VEC2"
        },
        {
            "bufferView" : 3,
            "componentType" : 5123,
            "count" : 6174,
            "type" : "SCALAR"
        },
        {
            "bufferView" : 4,
            "componentType" : 5126,
            "count" : 84,
            "max" : [
                7.703800201416016,
                57.314300537109375,
                12.895099639892578
            ],
            "min" : [
                -9.98189926147461,
                25.641199111938477,
                -12.896600723266602
            ],
            "type" : "VEC3"
        },
        {
            "bufferView" : 5,
            "componentType" : 5126,
            "count" : 84,
            "type" : "VEC3"
        },
        {
            "bufferView" : 6,
            "componentType" : 5126,
            "count" : 84,
            "type" : "VEC2"
        },
        {
            "bufferView" : 7,
            "componentType" : 5123,
            "count" : 90,
            "type" : "SCALAR"
        },
        {
            "bufferView" : 8,
            "componentType" : 5126,
            "count" : 4,
            "max" : [
                -6.114201068878174,
                48.386600494384766,
                3.605600118637085
            ],
            "min" : [
                -7.2527008056640625,
                44.8163948059082,
                -3.425299882888794
            ],
            "type" : "VEC3"
        },
        {
            "bufferView" : 9,
            "componentType" : 5126,
            "count" : 4,
            "type" : "VEC3"
        },
        {
            "bufferView" : 10,
            "componentType" : 5126,
            "count" : 4,
            "type" : "VEC2"
        },
        {
            "bufferView" : 11,
            "componentType" : 5123,
            "count" : 6,
            "type" : "SCALAR"
        },
        {
            "bufferView" : 12,
            "componentType" : 5126,
            "count" : 2205,
            "max" : [
                7.955100059509277,
                70.36199951171875,
                14.914100646972656
            ],
            "min" : [
                -10.463199615478516,
                0,
                -14.91409969329834
            ],
            "type" : "VEC3"
        },
        {
            "bufferView" : 13,
            "componentType" : 5126,
            "count" : 2205,
            "type" : "VEC3"
        },
        {
            "bufferView" : 14,
            "componentType" : 5126,
            "count" : 2205,
            "type" : "VEC2"
        },
        {
            "bufferView" : 15,
            "componentType" : 5123,
            "count" : 5640,
            "type" : "SCALAR"
        },
        {
            "bufferView" : 16,
            "componentType" : 5126,
            "count" : 69,
            "max" : [
                5.326099872589111,
                67.38899993896484,
                4.046999931335449
            ],
            "min" : [
                -0.265500009059906,
                63.40950012207031,
                -4.046999931335449
            ],
            "type" : "VEC3"
        },
        {
            "bufferView" : 17,
            "componentType" : 5126,
            "count" : 69,
            "type" : "VEC3"
        },
        {
            "bufferView" : 18,
            "componentType" : 5126,
            "count" : 69,
            "type" : "VEC2"
        },
        {
            "bufferView" : 19,
            "componentType" : 5123,
            "count" : 312,
            "type" : "SCALAR"
        }
    ],
    "bufferViews" : [
        {
            "buffer" : 0,
            "byteLength" : 18624,
            "byteOffset" : 0
        },
        {
            "buffer" : 0,
            "byteLength" : 18624,
            "byteOffset" : 18624
        },
        {
            "buffer" : 0,
            "byteLength" : 12416,
            "byteOffset" : 37248
        },
        {
            "buffer" : 0,
            "byteLength" : 12348,
            "byteOffset" : 49664
        },
        {
            "buffer" : 0,
            "byteLength" : 1008,
            "byteOffset" : 62012
        },
        {
            "buffer" : 0,
            "byteLength" : 1008,
            "byteOffset" : 63020
        },
        {
            "buffer" : 0,
            "byteLength" : 672,
            "byteOffset" : 64028
        },
        {
            "buffer" : 0,
            "byteLength" : 180,
            "byteOffset" : 64700
        },
        {
            "buffer" : 0,
            "byteLength" : 48,
            "byteOffset" : 64880
        },
        {
            "buffer" : 0,
            "byteLength" : 48,
            "byteOffset" : 64928
        },
        {
            "buffer" : 0,
            "byteLength" : 32,
            "byteOffset" : 64976
        },
        {
            "buffer" : 0,
            "byteLength" : 12,
            "byteOffset" : 65008
        },
        {
            "buffer" : 0,
            "byteLength" : 26460,
            "byteOffset" : 65020
        },
        {
            "buffer" : 0,
            "byteLength" : 26460,
            "byteOffset" : 91480
        },
        {
            "buffer" : 0,
            "byteLength" : 17640,
            "byteOffset" : 117940
        },
        {
            "buffer" : 0,
            "byteLength" : 11280,
            "byteOffset" : 135580
        },
        {
            "buffer" : 0,
            "byteLength" : 828,
            "byteOffset" : 146860
        },
        {
            "buffer" : 0,
            "byteLength" : 828,
            "byteOffset" : 147688
        },
        {
            "buffer" : 0,
            "byteLength" : 552,
            "byteOffset" : 148516
        },
        {
            "buffer" : 0,
            "byteLength" : 624,
            "byteOffset" : 149068
        }
    ],
    "buffers" : [
        {
            "byteLength" : 149692,
            "uri" : "data:application/octet-stream;base64,"
        }
    ]
}
