{
    "asset" : {
        "generator" : "Khronos glTF Blender I/O v1.8.19",
        "version" : "2.0"
    },
    "scene" : 0,
    "scenes" : [
        {
            "name" : "Scene",
            "nodes" : [
                0
            ]
        }
    ],
    "nodes" : [
        {
            "mesh" : 0,
            "name" : "Master Chief"
        }
    ],
    "materials" : [
        {
            "doubleSided" : true,
            "name" : "masterchief",
            "normalTexture" : {
                "index" : 0
            },
            "pbrMetallicRoughness" : {
                "baseColorTexture" : {
                    "index" : 1
                },
                "metallicFactor" : 0
            }
        },
        {
            "doubleSided" : true,
            "name" : "masterchief_visor",
            "normalTexture" : {
                "index" : 2
            },
            "pbrMetallicRoughness" : {
                "baseColorTexture" : {
                    "index" : 3
                },
                "metallicFactor" : 0
            }
        }
    ],
    "meshes" : [
        {
            "name" : "Master Chief",
            "primitives" : [
                {
                    "attributes" : {
                        "POSITION" : 0,
                        "NORMAL" : 1,
                        "TEXCOORD_0" : 2
                    },
                    "indices" : 3,
                    "material" : 0
                },
                {
                    "attributes" : {
                        "POSITION" : 4,
                        "NORMAL" : 5,
                        "TEXCOORD_0" : 6
                    },
                    "indices" : 7,
                    "material" : 1
                }
            ]
        }
    ],
    "textures" : [
        {
            "sampler" : 0,
            "source" : 0
        },
        {
            "sampler" : 0,
            "source" : 1
        },
        {
            "sampler" : 0,
            "source" : 0
        },
        {
            "sampler" : 0,
            "source" : 1
        }
    ],
    "images" : [
        {
            "mimeType" : "image/png",
            "name" : "Image_0",
            "uri" : "Image_0.png"
        },
        {
            "mimeType" : "image/png",
            "name" : "Image_1",
            "uri" : "Image_1.png"
        }
    ],
    "accessors" : [
        {
            "bufferView" : 0,
            "componentType" : 5126,
            "count" : 2194,
            "max" : [
                1.3830747604370117,
                5.251260280609131,
                1.551256775856018
            ],
            "min" : [
                -1.4052726030349731,
                -0.0276000015437603,
                -0.8183010816574097
            ],
            "type" : "VEC3"
        },
        {
            "bufferView" : 1,
            "componentType" : 5126,
            "count" : 2194,
            "type" : "VEC3"
        },
        {
            "bufferView" : 2,
            "componentType" : 5126,
            "count" : 2194,
            "type" : "VEC2"
        },
        {
            "bufferView" : 3,
            "componentType" : 5123,
            "count" : 8928,
            "type" : "SCALAR"
        },
        {
            "bufferView" : 4,
            "componentType" : 5126,
            "count" : 48,
            "max" : [
                0.2611328363418579,
                4.990657806396484,
                0.26737844944000244
            ],
            "min" : [
                -0.26089203357696533,
                4.6925554275512695,
                -0.029849832877516747
            ],
            "type" : "VEC3"
        },
        {
            "bufferView" : 5,
            "componentType" : 5126,
            "count" : 48,
            "type" : "VEC3"
        },
        {
            "bufferView" : 6,
            "componentType" : 5126,
            "count" : 48,
            "type" : "VEC2"
        },
        {
            "bufferView" : 7,
            "componentType" : 5123,
            "count" : 198,
            "type" : "SCALAR"
        }
    ],
    "bufferViews" : [
        {
            "buffer" : 0,
            "byteLength" : 26328,
            "byteOffset" : 0
        },
        {
            "buffer" : 0,
            "byteLength" : 26328,
            "byteOffset" : 26328
        },
        {
            "buffer" : 0,
            "byteLength" : 17552,
            "byteOffset" : 52656
        },
        {
            "buffer" : 0,
            "byteLength" : 17856,
            "byteOffset" : 70208
        },
        {
            "buffer" : 0,
            "byteLength" : 576,
            "byteOffset" : 88064
        },
        {
            "buffer" : 0,
            "byteLength" : 576,
            "byteOffset" : 88640
        },
        {
            "buffer" : 0,
            "byteLength" : 384,
            "byteOffset" : 89216
        },
        {
            "buffer" : 0,
            "byteLength" : 396,
            "byteOffset" : 89600
        }
    ],
    "samplers" : [
        {
            "magFilter" : 9729,
            "minFilter" : 9987
        }
    ],
    "buffers" : [
        {
            "byteLength" : 89996,
            "uri" : "masterchief2-separate-xf.bin"
        }
    ]
}
