{
    "asset" : {
        "generator" : "Khronos glTF Blender I/O v1.8.19",
        "version" : "2.0"
    },
    "scene" : 0,
    "scenes" : [
        {
            "name" : "Scene",
            "nodes" : [
                0
            ]
        }
    ],
    "nodes" : [
        {
            "mesh" : 0,
            "name" : "Master Chief"
        }
    ],
    "materials" : [
        {
            "doubleSided" : true,
            "name" : "masterchief",
            "normalTexture" : {
                "index" : 0
            },
            "pbrMetallicRoughness" : {
                "baseColorTexture" : {
                    "index" : 1
                },
                "metallicFactor" : 0
            }
        },
        {
            "doubleSided" : true,
            "name" : "masterchief_visor",
            "normalTexture" : {
                "index" : 2
            },
            "pbrMetallicRoughness" : {
                "baseColorTexture" : {
                    "index" : 3
                },
                "metallicFactor" : 0
            }
        }
    ],
    "meshes" : [
        {
            "name" : "Master Chief",
            "primitives" : [
                {
                    "attributes" : {
                        "POSITION" : 0,
                        "NORMAL" : 1,
                        "TEXCOORD_0" : 2
                    },
                    "indices" : 3,
                    "material" : 0
                },
                {
                    "attributes" : {
                        "POSITION" : 4,
                        "NORMAL" : 5,
                        "TEXCOORD_0" : 6
                    },
                    "indices" : 7,
                    "material" : 1
                }
            ]
        }
    ],
    "textures" : [
        {
            "sampler" : 0,
            "source" : 0
        },
        {
            "sampler" : 0,
            "source" : 1
        },
        {
            "sampler" : 0,
            "source" : 0
        },
        {
            "sampler" : 0,
            "source" : 1
        }
    ],
    "images" : [
        {
            "bufferView" : 4,
            "mimeType" : "image/png",
            "name" : "masterchief_bump"
        },
        {
            "bufferView" : 5,
            "mimeType" : "image/png",
            "name" : "masterchief"
        }
    ],
    "accessors" : [
        {
            "bufferView" : 0,
            "componentType" : 5126,
            "count" : 2189,
            "max" : [
                20.554100036621094,
                70.01679992675781,
                18.591299057006836
            ],
            "min" : [
                -10.870499610900879,
                -0.36800000071525574,
                -18.58810043334961
            ],
            "type" : "VEC3"
        },
        {
            "bufferView" : 1,
            "componentType" : 5126,
            "count" : 2189,
            "type" : "VEC3"
        },
        {
            "bufferView" : 2,
            "componentType" : 5126,
            "count" : 2189,
            "type" : "VEC2"
        },
        {
            "bufferView" : 3,
            "componentType" : 5123,
            "count" : 8928,
            "type" : "SCALAR"
        },
        {
            "bufferView" : 6,
            "componentType" : 5126,
            "count" : 48,
            "max" : [
                3.565200090408325,
                66.54209899902344,
                3.4818999767303467
            ],
            "min" : [
                -0.3675999939441681,
                62.56740188598633,
                -3.4786999225616455
            ],
            "type" : "VEC3"
        },
        {
            "bufferView" : 7,
            "componentType" : 5126,
            "count" : 48,
            "type" : "VEC3"
        },
        {
            "bufferView" : 8,
            "componentType" : 5126,
            "count" : 48,
            "type" : "VEC2"
        },
        {
            "bufferView" : 9,
            "componentType" : 5123,
            "count" : 198,
            "type" : "SCALAR"
        }
    ],
    "bufferViews" : [
        {
            "buffer" : 0,
            "byteLength" : 26268,
            "byteOffset" : 0
        },
        {
            "buffer" : 0,
            "byteLength" : 26268,
            "byteOffset" : 26268
        },
        {
            "buffer" : 0,
            "byteLength" : 17512,
            "byteOffset" : 52536
        },
        {
            "buffer" : 0,
            "byteLength" : 17856,
            "byteOffset" : 70048
        },
        {
            "buffer" : 0,
            "byteLength" : 789853,
            "byteOffset" : 87904
        },
        {
            "buffer" : 0,
            "byteLength" : 789853,
            "byteOffset" : 877760
        },
        {
            "buffer" : 0,
            "byteLength" : 576,
            "byteOffset" : 1667616
        },
        {
            "buffer" : 0,
            "byteLength" : 576,
            "byteOffset" : 1668192
        },
        {
            "buffer" : 0,
            "byteLength" : 384,
            "byteOffset" : 1668768
        },
        {
            "buffer" : 0,
            "byteLength" : 396,
            "byteOffset" : 1669152
        }
    ],
    "samplers" : [
        {
            "magFilter" : 9729,
            "minFilter" : 9987
        }
    ],
    "buffers" : [
        {
            "byteLength" : 1669548,
            "uri" : "data:application/octet-stream;base64,"
        }
    ]
}
